<?xml version="1.0" encoding="utf-8"?>
<!-- Generator: Adobe Illustrator 23.0.5, SVG Export Plug-In . SVG Version: 6.00 Build 0)  -->
<svg version="1.1" id="Capa_1" xmlns="http://www.w3.org/2000/svg" xmlns:xlink="http://www.w3.org/1999/xlink" x="0px" y="0px"
	 viewBox="0 0 64 64" style="enable-background:new 0 0 64 64;" xml:space="preserve">
<style type="text/css">
	.st0{fill:none;}
	.st1{fill:#9CA3AF;}
</style>
<g>
	<path class="st0" d="M0,64V0h64v64H0z"/>
	<g id="Layer_2">
		<path class="st1" d="M47,44c-2.4,0-4.4,1.7-4.9,4h-8.2c-0.5-2.3-2.5-4-4.9-4c-2.8,0-5,2.2-5,5s2.2,5,5,5c2.4,0,4.4-1.7,4.9-4h8.2
			c0.5,2.3,2.5,4,4.9,4c2.8,0,5-2.2,5-5S49.8,44,47,44z M29,52c-1.7,0-3-1.3-3-3c0-1.7,1.3-3,3-3s3,1.3,3,3C32,50.7,30.7,52,29,52z
			 M47,52c-1.7,0-3-1.3-3-3c0-1.7,1.3-3,3-3s3,1.3,3,3C50,50.7,48.7,52,47,52z"/>
		<rect x="30" y="33" class="st1" width="18" height="2"/>
		<path class="st1" d="M55,19H21.8l-1.5-6.7C20,11,18.8,10,17.4,10H9c-1.7,0-3,1.3-3,3s1.3,3,3,3h4c1.7,0,3-1.3,3-3v-1h1.4
			c0.5,0,0.9,0.3,1,0.8l5,22.3c0.5,2.3,2.5,3.9,4.9,3.9H50c2.2,0,4.2-1.5,4.8-3.6l3-10.6c0.1-0.4,0.2-0.9,0.2-1.4V22
			C58,20.3,56.7,19,55,19z M14,13c0,0.6-0.4,1-1,1H9c-0.6,0-1-0.4-1-1s0.4-1,1-1h5V13z M56,23.4c0,0.3,0,0.6-0.1,0.8l-3,10.6
			C52.5,36.1,51.3,37,50,37H28.2c-1.4,0-2.6-1-2.9-2.3l-3-13.7H55c0.6,0,1,0.4,1,1V23.4z"/>
	</g>
</g>
</svg>
