<svg xmlns="http://www.w3.org/2000/svg" x="0px" y="0px"
width="64" height="64"
viewBox="0 0 172 172"
style=" fill:#000000;"><defs><linearGradient x1="86" y1="16.125" x2="86" y2="144.36981" gradientUnits="userSpaceOnUse" id="color-1_rsdFQQ21vZVF_gr1"><stop offset="0" stop-color="#1a6dff"></stop><stop offset="1" stop-color="#c822ff"></stop></linearGradient><linearGradient x1="126.3125" y1="112.42619" x2="126.3125" y2="138.718" gradientUnits="userSpaceOnUse" id="color-2_rsdFQQ21vZVF_gr2"><stop offset="0" stop-color="#8ab4ff"></stop><stop offset="1" stop-color="#e492ff"></stop></linearGradient><linearGradient x1="53.75" y1="107.84669" x2="53.75" y2="132.6335" gradientUnits="userSpaceOnUse" id="color-3_rsdFQQ21vZVF_gr3"><stop offset="0" stop-color="#8ab4ff"></stop><stop offset="1" stop-color="#e492ff"></stop></linearGradient></defs><g fill="none" fill-rule="nonzero" stroke="none" stroke-width="1" stroke-linecap="butt" stroke-linejoin="miter" stroke-miterlimit="10" stroke-dasharray="" stroke-dashoffset="0" font-family="none" font-weight="none" font-size="none" text-anchor="none" style="mix-blend-mode: normal"><path d="M0,172v-172h172v172z" fill="none"></path><g><path d="M131.6875,97.26331v-40.82581c0,-4.44512 3.61738,-8.0625 8.0625,-8.0625h5.375v-8.0625c0,-7.40944 -6.02806,-13.4375 -13.4375,-13.4375h-27.90162l-3.14706,-6.29144c-1.37331,-2.74931 -4.13875,-4.45856 -7.21325,-4.45856h-25.59844c-3.07719,0 -5.83994,1.70925 -7.21594,4.45856l-3.14706,6.29144h-27.90163c-7.40944,0 -13.4375,6.02806 -13.4375,13.4375v8.0625h5.375c4.44513,0 8.0625,3.61738 8.0625,8.0625v69.875c0,10.37106 8.44144,18.8125 18.8125,18.8125h55.15019c5.42606,6.56019 13.62563,10.75 22.78731,10.75c16.29969,0 29.5625,-13.26281 29.5625,-29.5625c0,-14.46412 -10.449,-26.51219 -24.1875,-29.04919zM65.41912,22.98888c0.45956,-0.91913 1.37869,-1.48888 2.40531,-1.48888h25.59844c1.02662,0 1.94844,0.56975 2.408,1.48888l1.94575,3.88613h-34.30325zM21.5,43v-2.6875c0,-4.44512 3.61737,-8.0625 8.0625,-8.0625h102.125c4.44512,0 8.0625,3.61738 8.0625,8.0625v2.6875zM48.375,139.75c-7.40944,0 -13.4375,-6.02806 -13.4375,-13.4375v-69.875c0,-3.03687 -1.05081,-5.81037 -2.75737,-8.0625h13.50737v10.75h5.375v-10.75h10.75v16.125h5.375v-16.125h10.75v24.1875h5.375v-24.1875h10.75v16.125h5.375v-16.125h10.75v10.75h5.375v-10.75h13.50737c-1.70656,2.25212 -2.75737,5.02563 -2.75737,8.0625v40.3125c-16.29969,0 -29.5625,13.26281 -29.5625,29.5625c0,4.84019 1.19325,9.40087 3.26263,13.4375zM126.3125,150.5c-13.33806,0 -24.1875,-10.84944 -24.1875,-24.1875c0,-13.33806 10.84944,-24.1875 24.1875,-24.1875c13.33806,0 24.1875,10.84944 24.1875,24.1875c0,13.33806 -10.84944,24.1875 -24.1875,24.1875z" fill="url(#color-1_rsdFQQ21vZVF_gr1)"></path><path d="M137.71556,118.70956l-3.80013,-3.80013l-7.60294,7.60025l-7.60294,-7.60025l-3.80013,3.80013l7.60294,7.60294l-7.60294,7.60025l3.80013,3.80012l7.60294,-7.60025l7.60294,7.60025l3.80013,-3.80012l-7.60294,-7.60025z" fill="url(#color-2_rsdFQQ21vZVF_gr2)"></path><path d="M64.5,131.6875h-13.4375c-4.45319,0 -8.0625,-3.60931 -8.0625,-8.0625v-13.4375z" fill="url(#color-3_rsdFQQ21vZVF_gr3)"></path></g></g></svg>